<svg height="464pt" viewBox="0 -8 464 464" width="464pt" xmlns="http://www.w3.org/2000/svg"><path d="m0 288h80v160h-80zm0 0"/><path d="m135.464844 317.953125c-4.078125 1.351563-8.34375 2.042969-12.640625 2.046875h-26.824219v104h12c3.285156 0 6.558594.402344 9.742188 1.199219l56.371093 14.089843c1.894531.472657 3.84375.710938 5.796875.710938h67.496094c4.214844.003906 8.351562-1.097656 12-3.199219l172.753906-99.730469c7.40625-4.289062 11.972656-12.191406 12-20.75.003906-8.578124-4.566406-16.503906-11.992187-20.796874-7.429688-4.289063-16.578125-4.292969-24.007813-.003907l-94.222656 48.03125c4.523438 13.945313 1.054688 29.25-9.035156 39.882813-10.09375 10.632812-25.195313 14.894531-39.359375 11.101562l-67.605469-16.191406c-2.070312-.488281-3.859375-1.78125-4.972656-3.59375-1.113282-1.808594-1.460938-3.988281-.964844-6.054688 1.03125-4.273437 5.320312-6.914062 9.601562-5.910156l67.824219 16.246094c6.96875 1.914062 14.429688.59375 20.320313-3.589844 5.890625-4.1875 9.589844-10.796875 10.078125-18.007812.476562-11.695313-7.332031-22.113282-18.6875-24.9375l-97.9375-26.28125c-4.539063-1.214844-9.332031-1.070313-13.792969.417968zm0 0"/><path d="m408 0c-30.929688 0-56 25.070312-56 56s25.070312 56 56 56 56-25.070312 56-56c-.035156-30.914062-25.085938-55.9648438-56-56zm0 48c11.675781-.023438 21.664062 8.378906 23.644531 19.886719 1.976563 11.507812-4.632812 22.761719-15.644531 26.640625v9.472656h-16v-9.472656c-9.554688-3.378906-15.957031-12.394532-16-22.527344h16c0 4.417969 3.582031 8 8 8s8-3.582031 8-8-3.582031-8-8-8c-11.675781.023438-21.664062-8.378906-23.644531-19.886719-1.976563-11.507812 4.632812-22.761719 15.644531-26.640625v-9.472656h16v9.472656c9.554688 3.378906 15.957031 12.394532 16 22.527344h-16c0-4.417969-3.582031-8-8-8s-8 3.582031-8 8 3.582031 8 8 8zm0 0"/><path d="m304 128c-44.183594 0-80 35.816406-80 80s35.816406 80 80 80 80-35.816406 80-80c-.046875-44.164062-35.835938-79.953125-80-80zm0 72c16.09375-.019531 29.6875 11.9375 31.71875 27.90625 2.035156 15.964844-8.132812 30.945312-23.71875 34.957031v17.136719h-16v-17.136719c-14.085938-3.636719-23.945312-16.316406-24-30.863281h16c0 8.835938 7.164062 16 16 16s16-7.164062 16-16-7.164062-16-16-16c-16.09375.019531-29.6875-11.9375-31.71875-27.90625-2.035156-15.964844 8.132812-30.945312 23.71875-34.957031v-17.136719h16v17.136719c14.085938 3.636719 23.945312 16.316406 24 30.863281h-16c0-8.835938-7.164062-16-16-16s-16 7.164062-16 16 7.164062 16 16 16zm0 0"/></svg>