<svg id="Capa_1" enable-background="new 0 0 512.3 512.3" height="512" viewBox="0 0 512.3 512.3" width="512" xmlns="http://www.w3.org/2000/svg"><path d="m255.251 191.021c-3.979 0-7.794-1.58-10.606-4.394l-42.426-42.427c-5.858-5.857-5.858-15.355 0-21.213l50.317-50.316 63.639 63.64-50.317 50.316c-2.814 2.814-6.629 4.394-10.607 4.394z"/><path d="m356.125 96.36c8.139-8.137 22.416-8.137 30.553.001l29.347 29.347c3.952 3.953 6.129 9.378 6.129 15.277 0 5.898-2.177 11.323-6.129 15.275l-18.737 18.737 63.639 63.639 18.737-18.737c43.515-43.515 43.515-114.317 0-157.832l-29.347-29.347c-21.004-21.003-49.03-32.57-78.916-32.57s-57.912 11.567-78.916 32.571l-18.737 18.737 63.639 63.639z"/><path d="m378.79 314.56c-3.839 0-7.678-1.465-10.607-4.394l-42.426-42.426c-2.813-2.813-4.393-6.628-4.393-10.606 0-3.979 1.581-7.794 4.393-10.607l50.317-50.317 63.639 63.64-50.317 50.316c-2.928 2.929-6.767 4.394-10.606 4.394z"/><path d="m286.722 395.073c-15.283 16.466-36.961 26.94-61.059 27.431v89.646h74.83v-73.336c0-16.253-5.104-31.329-13.771-43.741z"/><path d="m223.89 281.619c-21.932 0-40.936 12.709-49.999 31.12l16.998 17.977c16.471 17.42 27.498 38.773 32.197 61.791.269.004.534.02.804.02 30.689 0 55.657-24.877 55.657-55.454 0-30.578-24.968-55.454-55.657-55.454z"/><path d="m97.831 381.307c-27.898 0-53.15-11.495-71.259-29.979-16.462 17.41-26.572 40.885-26.572 66.68v94.142h195.663v-94.142c0-25.795-10.11-49.271-26.572-66.68-18.11 18.484-43.362 29.979-71.26 29.979z"/><path d="m97.831 351.307c-38.415 0-69.668-31.131-69.668-69.395 0-38.265 31.253-69.395 69.668-69.395s69.668 31.13 69.668 69.395c0 38.264-31.253 69.395-69.668 69.395z"/></svg>