<svg id="Capa_1" enable-background="new 0 0 497 497" height="512" viewBox="0 0 497 497" width="512" xmlns="http://www.w3.org/2000/svg"><g><g><path d="m408.025 251.71c-11.63 5.94-24.79 9.29-38.72 9.29h-86.89c-22.52 0-44.59-3.56-65.81-10.59-32.88 41.18-53.8 98.24-53.8 144.87 0 83.25 66.71 101.72 149 101.72s149-18.47 149-101.72c0-46.14-20.49-102.5-52.78-143.57zm-103.44 92.29c5.6 4.39 16.03 8.41 25.5 11.75 38.882 13.527 34.698 66.211-1.53 79.23v18.02h-30v-16.32c-6.82-1.21-13.08-3.78-20.96-8.94l-12.55-8.21 16.42-25.11 12.55 8.22c7.22 4.72 9.55 5.08 19.44 5.02 9.49-.06 13.27-7.51 14-11.9.96-5.71-1.52-9.65-7.37-11.72-12.35-4.37-25.03-9.38-34.02-16.43-21.596-16.985-12.095-52.906 12.49-62.46v-17.15h30v14.98c13.905 3.137 20.913 8.47 31.58 13.93l-14.23 26.41c-9.016-4.224-22.201-15.02-35.59-10.59-4.725 1.722-7.65 8.054-5.73 11.27z"/></g><g><path d="m279.805 73.57c0 9.06 7.37 16.43 16.43 16.43h110.46l31.11-37.84v-52.16h-158.06z"/></g><g><path d="m369.305 231c30.6 0 55.5-24.9 55.5-55.5v-41.79c0-7.56-6.15-13.71-13.71-13.71h-114.86c-5.8 0-11.36-1.07-16.49-3.03-17.48-6.66-29.94-23.6-29.94-43.4v-19.16h-89v129.15c33.24 30.66 76.13 47.44 121.61 47.44z"/></g><g><path d="m36.195 30h94.61v154h-94.61z"/></g></g></svg>