<svg id="Capa_1" enable-background="new 0 0 512 512" height="512" viewBox="0 0 512 512" width="512" xmlns="http://www.w3.org/2000/svg"><g><path d="m391 497v15h45c8.291 0 15-6.709 15-15v-46h-15c-24.814 0-45 21.186-45 46z"/><path d="m151 15c0 41.353-33.647 76-75 76h-15v330h15c41.353 0 75 34.647 75 76v15h210v-15c0-41.353 33.647-76 75-76h15v-330h-15c-41.353 0-75-34.647-75-76v-15h-210zm135 436h-60c-8.291 0-15-6.709-15-15s6.709-15 15-15h60c8.291 0 15 6.709 15 15s-6.709 15-15 15zm60-60h-180c-8.291 0-15-6.709-15-15s6.709-15 15-15h180c8.291 0 15 6.709 15 15s-6.709 15-15 15zm-135-75c0-8.291 6.709-15 15-15h60c8.291 0 15 6.709 15 15s-6.709 15-15 15h-60c-8.291 0-15-6.709-15-15zm45-255c57.891 0 105 47.109 105 105 0 29.392-12.217 55.92-31.749 75h16.749c8.291 0 15 6.709 15 15s-6.709 15-15 15h-90c-57.891 0-105-47.109-105-105s47.109-105 105-105z"/><path d="m256 241c41.353 0 75-33.647 75-75s-33.647-75-75-75-75 33.647-75 75 33.647 75 75 75zm0-30c-8.284 0-15-6.716-15-15 0-8.286 6.716-15 15-15s15 6.714 15 15c0 8.284-6.716 15-15 15zm30-60c8.284 0 15 6.714 15 15 0 8.284-6.716 15-15 15s-15-6.716-15-15c0-8.286 6.716-15 15-15zm-30-30c8.284 0 15 6.714 15 15 0 8.284-6.716 15-15 15s-15-6.716-15-15c0-8.286 6.716-15 15-15zm-30 30c8.284 0 15 6.714 15 15 0 8.284-6.716 15-15 15s-15-6.716-15-15c0-8.286 6.716-15 15-15z"/><path d="m61 451v46c0 8.291 6.709 15 15 15h45v-15c0-24.814-20.186-46-45-46z"/><path d="m451 61v-46c0-8.291-6.709-15-15-15h-45v15c0 24.814 20.186 46 45 46z"/><path d="m121 15v-15h-45c-8.291 0-15 6.709-15 15v46h15c24.814 0 45-21.186 45-46z"/></g></svg>